<?xml version="1.0" encoding="utf-8"?>
<!-- Generator: Adobe Illustrator 15.1.0, SVG Export Plug-In . SVG Version: 6.00 Build 0)  -->
<!DOCTYPE svg PUBLIC "-//W3C//DTD SVG 1.1//EN" "http://www.w3.org/Graphics/SVG/1.1/DTD/svg11.dtd">
<svg version="1.1" id="Layer_1" xmlns="http://www.w3.org/2000/svg" xmlns:xlink="http://www.w3.org/1999/xlink" x="0px" y="0px"
	 width="600px" height="200px" viewBox="0 0 600 200" enable-background="new 0 0 600 200" xml:space="preserve">
<path fill="#FAB174" stroke="#000000" stroke-width="5" stroke-miterlimit="10" d="M51.005,6.083v189.002h26.992v-67.498
	c0,0,27.002,0,27.002,67.498h27.002c0,0,0-80.994-27.002-80.994c0,0,27.002-13.516,27.002-67.5h-27.002c0,0,0,53.985-27.002,53.985
	V6.083H51.005z"/>
<path fill="#FAB174" stroke="#000000" stroke-width="5" stroke-miterlimit="10" d="M145.497,195.085V33.075h-40.498
	c0,0,0-26.992,27.002-26.992s391.504,0,391.504,0s26.992,0,26.992,26.992H172.499v162.01H145.497z"/>
<path fill="#FAB174" stroke="#000000" stroke-width="5" stroke-miterlimit="10" d="M226.503,46.59
	c-40.498,0-40.498,40.489-40.498,40.489v108.006h26.992v-40.507h27.002v40.507h27.002V87.079
	C267.001,87.079,267.001,46.59,226.503,46.59z M239.999,127.587h-27.002V87.079c0,0,0-13.497,13.506-13.497
	c13.496,0,13.496,13.497,13.496,13.497V127.587z"/>
<path fill="#FAB174" stroke="#000000" stroke-width="5" stroke-miterlimit="10" d="M280.497,141.081h27.002v13.497
	c0,0,0,13.495,13.506,13.495c13.496,0,13.496-13.495,13.496-13.495v-13.497c0,0,0-13.494-13.496-13.494
	c-13.506,0-40.508,0-40.508-27.012c0-26.993,0-26.993,0-26.993s0-26.992,27.002-26.992s27.002,0,27.002,0s27.002,0,27.002,26.992
	h-40.498c0,0-13.506,0-13.506,13.497c0,13.496,13.506,13.496,13.506,13.496h13.496c0,0,27.002,0,27.002,27.012
	c0,26.991,0,40.486,0,40.486s0,27.012-27.002,27.012s-27.002,0-27.002,0s-27.002,0-27.002-27.012
	C280.497,141.081,280.497,141.081,280.497,141.081"/>
<path fill="#FAB174" stroke="#000000" stroke-width="5" stroke-miterlimit="10" d="M374.999,46.59v148.495h27.002v-67.498
	c0,0,27.002,0,27.002,67.498h27.002c0,0,0-80.994-27.002-80.994c0,0,27.002-13.516,27.002-67.5h-27.002c0,0,0,53.985-27.002,53.985
	V46.59H374.999z"/>
<path fill="#FAB174" stroke="#000000" stroke-width="5" stroke-miterlimit="10" d="M469.501,141.081h27.002v13.497
	c0,0,0,13.495,13.496,13.495c13.506,0,13.506-13.495,13.506-13.495v-13.497c0,0,0-13.494-13.506-13.494
	c-13.496,0-40.498,0-40.498-27.012c0-26.993,0-26.993,0-26.993s0-26.992,27.002-26.992h53.994v26.992h-40.498
	c0,0-13.496,0-13.496,13.497c0,13.496,13.496,13.496,13.496,13.496h13.506c0,0,26.992,0,26.992,27.012v67.498h-26.992
	c-27.002,0-27.002,0-27.002,0s-27.002,0-27.002-27.012C469.501,141.081,469.501,141.081,469.501,141.081"/>
</svg>
