<?xml version="1.0" encoding="utf-8"?>
<!-- Generator: Adobe Illustrator 15.1.0, SVG Export Plug-In . SVG Version: 6.00 Build 0)  -->
<!DOCTYPE svg PUBLIC "-//W3C//DTD SVG 1.1//EN" "http://www.w3.org/Graphics/SVG/1.1/DTD/svg11.dtd">
<svg version="1.1" id="Layer_1" xmlns="http://www.w3.org/2000/svg" xmlns:xlink="http://www.w3.org/1999/xlink" x="0px" y="0px"
	 width="250px" height="250px" viewBox="0 0 250 250" enable-background="new 0 0 250 250" xml:space="preserve">
<path fill="#CFCDBD" stroke="#000000" stroke-width="5" stroke-miterlimit="10" d="M160.102,242.848
	C99.355,192.594,48.354,213.6,48.354,213.6C35.605,104.097,81.351,39.595,81.351,39.595s32.705-20.586,146.104-5.42
	C227.455,34.175,163.852,89.849,160.102,242.848"/>
<path fill="#FFFFFF" stroke="#000000" stroke-width="5" stroke-miterlimit="10" d="M148.49,226.715
	c-60.747-50.244-111.748-29.248-111.748-29.248C23.994,87.964,69.74,23.462,69.74,23.462s32.705-20.586,146.104-5.42
	C215.844,18.042,161.602,86.167,148.49,226.715"/>
<path fill="#FFFAC0" stroke="#000000" stroke-width="2" stroke-miterlimit="10" d="M75.39,53.433
	C87.392,39.185,92.08,28.599,92.08,28.599c-13.004,1.758-23.707,2.334-23.707,2.334S64.14,38.677,49.14,49.927
	C49.14,49.927,61.826,49.566,75.39,53.433"/>
<path fill="#FFFAC0" stroke="#000000" stroke-miterlimit="10" d="M70.609,34.38c0,0,2.285,0.244,14.023,0"/>
<path fill="#FEC661" stroke="#000000" stroke-miterlimit="10" d="M90.394,39.703"/>
<path fill="#FEC661" stroke="#000000" stroke-miterlimit="10" d="M68.291,41.197"/>
<path fill="#FEC661" stroke="#000000" stroke-miterlimit="10" d="M90.394,46.158"/>
<path fill="#FEC661" stroke="#000000" stroke-miterlimit="10" d="M68.291,47.662"/>
<path fill="#FFFAC0" stroke="#000000" stroke-miterlimit="10" d="M68.291,37.154c0,0,1.586-0.088,13.217,1.484"/>
<path fill="#FFFAC0" stroke="#000000" stroke-miterlimit="10" d="M59.486,46.06c0,0,3.482-1.055,14.648,2.578"/>
<path fill="#FFFAC0" stroke="#000000" stroke-width="2" stroke-miterlimit="10" d="M180.264,101.548
	c7.09-19.629,1.84-44.756,1.84-44.756c-13.002,1.748-38.002,4.004-38.002,4.004s6.41,18.369-0.352,40.752
	C143.75,101.548,166.699,97.681,180.264,101.548"/>
<path fill="#FEC661" stroke="#000000" stroke-miterlimit="10" d="M185.961,39.556"/>
<path fill="#FEC661" stroke="#000000" stroke-miterlimit="10" d="M163.861,41.041"/>
<path fill="#FEC661" stroke="#000000" stroke-miterlimit="10" d="M185.961,44.8"/>
<path fill="#FEC661" stroke="#000000" stroke-miterlimit="10" d="M163.861,46.294"/>
<path fill="#FEC661" stroke="#000000" stroke-miterlimit="10" d="M174.912,78.736"/>
<path fill="#FEC661" stroke="#000000" stroke-miterlimit="10" d="M152.813,80.23"/>
<path fill="#FEC661" stroke="#000000" stroke-miterlimit="10" d="M174.912,83.98"/>
<path fill="#FEC661" stroke="#000000" stroke-miterlimit="10" d="M152.813,85.474"/>
<path fill="#FEC661" stroke="#000000" stroke-miterlimit="10" d="M174.912,90.445"/>
<path fill="#FEC661" stroke="#000000" stroke-miterlimit="10" d="M152.813,91.929"/>
<path fill="#FFFAC0" stroke="#000000" stroke-miterlimit="10" d="M183.461,61.548"/>
<path fill="#FFFAC0" stroke="#000000" stroke-miterlimit="10" d="M168.461,53.667"/>
<path fill="#FFFAC0" stroke="#000000" stroke-miterlimit="10" d="M183.461,61.548"/>
<path fill="#FFFAC0" stroke="#000000" stroke-miterlimit="10" d="M184.711,41.041"/>
<path fill="#FFFAC0" stroke="#000000" stroke-miterlimit="10" d="M178.965,58.296"/>
<path fill="#FFFAC0" stroke="#000000" stroke-miterlimit="10" d="M168.461,53.667"/>
<path fill="#FFFAC0" stroke="#000000" stroke-miterlimit="10" d="M178.965,58.296"/>
<path fill="#FFFAC0" stroke="#000000" stroke-miterlimit="10" d="M184.711,41.041"/>
<path fill="#FFFAC0" stroke="#000000" stroke-miterlimit="10" d="M148.09,97.291c0,0,16.334-2.725,29.322,0"/>
<path fill="#FFFAC0" stroke="#000000" stroke-miterlimit="10" d="M149.965,98.296c0,0-1,3.135,1.621-9.873"/>
<polyline fill="#FFFAC0" stroke="#000000" stroke-miterlimit="10" points="153.965,93.521 160.635,84.419 162.211,90.445 
	165.336,87.291 174.463,93.521 "/>
<path fill="#FFFAC0" stroke="#000000" stroke-miterlimit="10" d="M152.211,80.23c0,0,11.377-2.686,26.754-1.494"/>
<path fill="#FFFAC0" stroke="#000000" stroke-miterlimit="10" d="M151.586,68.082c0,0,4.947-1.328,9.141-0.967"/>
<path fill="#FFFAC0" stroke="#000000" stroke-width="2" stroke-miterlimit="10" d="M204.066,74.673
	c-9.252-19.756-5.248-40.254-5.248-40.254c-13.004,1.748-38.004,4.004-38.004,4.004s-2.992,22.793,8.502,40.742
	C169.316,79.166,190.502,70.806,204.066,74.673"/>
<g>
	<path fill="#C2D955" d="M168.744,65.406c0,0,0.088,5.488,2.9,9.053c0,0,1.031-5.439,8.154-9.521c0,0-6.777,3.994-8.389,6.143
		C171.41,71.08,168.369,66.343,168.744,65.406"/>
	<path d="M168.795,65.405c0.248,1.588,0.592,3.15,1.104,4.64c0.502,1.491,1.168,2.913,2.078,4.152l-0.746,0.183
		c0.316-1.132,0.848-2.076,1.445-2.997c0.611-0.905,1.279-1.756,1.992-2.569c0.717-0.811,1.492-1.568,2.307-2.286
		c0.822-0.711,1.689-1.38,2.621-1.948l0.412,0.711c-1.445,0.942-2.9,1.889-4.301,2.895c-0.707,0.492-1.4,1-2.082,1.512
		c-0.666,0.522-1.35,1.056-1.859,1.647l-0.424,0.494l-0.305-0.52c-0.543-0.925-1.053-1.857-1.496-2.833
		C169.32,68,169.098,67.513,168.928,67c-0.143-0.511-0.395-1.035-0.229-1.613l0.092,0.037c-0.031,0.479,0.264,0.97,0.486,1.424
		c0.254,0.457,0.508,0.913,0.787,1.358c0.561,0.885,1.131,1.772,1.721,2.633l-0.729-0.027c0.57-0.777,1.236-1.363,1.924-1.927
		c0.682-0.567,1.4-1.078,2.123-1.574c1.467-0.967,2.947-1.887,4.486-2.729l0.414,0.711c-0.928,0.499-1.846,1.024-2.711,1.638
		c-0.873,0.603-1.672,1.31-2.393,2.091c-0.713,0.784-1.338,1.657-1.805,2.605c-0.471,0.931-0.855,1.954-1.037,2.909l-0.166,0.877
		l-0.578-0.695c-1.082-1.298-1.742-2.872-2.154-4.457c-0.391-1.596-0.58-3.232-0.465-4.856L168.795,65.405z"/>
</g>
<path fill="#FFFAC0" stroke="#000000" stroke-miterlimit="10" d="M165.488,43.638c0,0,13.227-3.516,26.449-2.383"/>
<path fill="#FFFAC0" stroke="#000000" stroke-miterlimit="10" d="M165.488,47.173c0,0,13.227-3.516,26.449-2.383"/>
<path fill="#FFFAC0" stroke="#000000" stroke-miterlimit="10" d="M165.488,50.826c0,0,13.227-3.516,26.449-2.383"/>
<path fill="#FFFAC0" stroke="#000000" stroke-miterlimit="10" d="M166.537,54.605c0,0,13.229-3.516,26.451-2.383"/>
<path fill="#FFFFFF" stroke="#000000" stroke-width="4" stroke-miterlimit="10" d="M98.691,28.599"/>
<path fill="#94D9F8" stroke="#000000" stroke-width="4" stroke-miterlimit="10" d="M102.96,142.945
	c-18.225-2.559-52.555,1.037-52.555,1.037c7.312-17.449,8.49-30.595,8.49-30.595c22.412,0.138,4.633,1.312,54.484-3.035
	C113.38,110.352,114.357,108.761,102.96,142.945"/>
<path fill="#FFFFFF" stroke="#000000" stroke-width="2" stroke-miterlimit="10" d="M65.908,69.698c0,0,27.088-6.075,64.26,0"/>
<path fill="#FFFFFF" stroke="#000000" stroke-width="2" stroke-miterlimit="10" d="M64.167,78.431c0,0,47.008-6.738,61.004,0"/>
<path fill="#FFFFFF" stroke="#000000" stroke-width="2" stroke-miterlimit="10" d="M61.167,88.423c0,0,48-6.746,59,0"/>
<path fill="#FFFFFF" stroke="#000000" stroke-width="2" stroke-miterlimit="10" d="M122.833,199.836l2.338-7v10.334l2.997-5.166
	l2,1.832l2-3.334c0,0,7,2.336,10.332,1.502"/>
</svg>
